<?xml version="1.0" encoding="UTF-8"?> <svg xmlns="http://www.w3.org/2000/svg" xmlns:xlink="http://www.w3.org/1999/xlink" version="1.1" id="Capa_1" x="0px" y="0px" viewBox="0 0 171 76" style="enable-background:new 0 0 171 76;" xml:space="preserve"> <style type="text/css"> .st0{fill:#ED6D26;} .st1{fill:#A3BD35;} .st2{fill:#0069A8;} .st3{fill-rule:evenodd;clip-rule:evenodd;fill:#0069A8;} </style> <g> <g> <path class="st0" d="M99.1,67.5c0-4.2,3.4-7.7,7.7-7.7c4.2,0,7.7,3.4,7.7,7.7s-3.4,7.7-7.7,7.7C102.5,75.2,99.1,71.7,99.1,67.5z"></path> </g> <g> <path class="st1" d="M126.8,67.5c0-4.2,3.4-7.7,7.7-7.7s7.7,3.4,7.7,7.7s-3.4,7.7-7.7,7.7C130.2,75.2,126.8,71.7,126.8,67.5z"></path> </g> <g> <path class="st2" d="M154.5,67.5c0-4.2,3.4-7.7,7.7-7.7s7.7,3.4,7.7,7.7s-3.4,7.7-7.7,7.7C157.9,75.2,154.5,71.7,154.5,67.5z"></path> </g> <g> <g> <g> <rect x="1.5" y="37.9" class="st2" width="140.5" height="0.3"></rect> <rect x="1.1" y="37.6" class="st2" width="141.2" height="0.9"></rect> </g> <g> <rect x="1.1" y="37.6" class="st2" width="141.2" height="0.9"></rect> </g> </g> <g> <g> <rect x="1.5" y="53.1" class="st2" width="140.5" height="0.3"></rect> <rect x="1.1" y="52.8" class="st2" width="141.2" height="0.9"></rect> </g> <g> <rect x="1.1" y="52.8" class="st2" width="141.2" height="0.9"></rect> </g> </g> <g> <path class="st2" d="M23.6,8.9c0,0-1.4-2.4-4.2-2.3C16.3,6.7,16,9.3,16,9.9c0,0.6,0.1,1.2,1,1.9c0.9,0.7,4.4,2.1,6.6,3.4 c2.4,1.4,3.5,3.7,3.5,6.8s-1.7,9.3-9.1,9.3c-6,0-8.8-5.5-8.8-5.5l3.5-3.4c0,0,1.5,4,5,4s3.6-3.9,3.6-3.9s0.5-2.4-2.8-3.8 c-3.3-1.4-8.2-2.6-8.2-8.4s4.9-8.2,8.2-8.2c5,0,7.5,3.2,7.5,3.2L23.6,8.9z"></path> </g> <g> <rect x="1.5" y="2.8" class="st2" width="5.5" height="27.8"></rect> </g> <g> <polygon class="st2" points="54.4,2.5 72.5,2.5 72.5,4.9 64.7,4.9 64.7,30.6 62.2,30.6 62.2,4.9 54.4,4.9 "></polygon> </g> <g> <path class="st3" d="M74.3,20.5c0,4.6,3.6,8.4,8.1,8.4c4.5,0,8.1-3.8,8.1-8.4c0-4.7-3.6-8.4-8.1-8.4C77.9,12,74.3,15.8,74.3,20.5 z M71.1,20.5c0-6.1,5-11,11.2-11c6.2,0,11.2,4.9,11.2,11s-5,11-11.2,11C76.2,31.5,71.1,26.5,71.1,20.5z"></path> </g> <g> <path class="st3" d="M33.6,16.8c0,5.1,3.7,9.2,8.2,9.2s8.2-4.1,8.2-9.2s-3.7-9.2-8.2-9.2C37.3,7.6,33.6,11.7,33.6,16.8z M28,16.8 C28,8.6,34.2,2,41.9,2s13.8,6.6,13.8,14.7s-6.2,14.7-13.8,14.7C34.3,31.5,28,24.9,28,16.8z"></path> </g> <g> <path class="st3" d="M98.9,20.5c0,4.6,3.6,8.4,8.1,8.4s8.1-3.8,8.1-8.4c0-4.7-3.6-8.4-8.1-8.4S98.9,15.8,98.9,20.5z M95.8,20.5 c0-6.1,5-11,11.2-11c6.2,0,11.2,4.9,11.2,11s-5,11-11.2,11C100.8,31.5,95.8,26.5,95.8,20.5z"></path> </g> <g> <rect x="121.9" y="0.8" class="st2" width="2.4" height="29.7"></rect> </g> <g> <path class="st2" d="M139.2,15c0,0-1.1-3.2-4.6-3c-3.5,0.2-3.4,2.7-3.4,3.1c0,1.1,0.4,2.5,4.1,3.6c3.7,1.2,6.6,2.3,6.6,6.6 s-2.9,6.3-7.5,6.3c-4.6,0-6.3-2.6-7.3-4.6c0,0,2.7-1.6,2.7-1.6S131,29,135,29c4.1,0,4-3.5,4-3.5s0.1-2.1-2.1-3 c-2.2-1-4.9-1.7-6.3-2.8c-1.4-1.1-2.5-2.2-2.5-4.6s1.9-5.8,6.8-5.8c4.9,0,6.7,4.1,6.7,4.1L139.2,15z"></path> </g> <g> <path class="st2" d="M6.8,48.7c0.2,0,0.3,0.1,0.4,0.2c0.1,0.1,0.2,0.2,0.2,0.4c0,0.2-0.1,0.3-0.2,0.4c-0.1,0.1-0.2,0.2-0.4,0.2H2 c-0.1,0-0.2,0-0.2,0c-0.1,0-0.1-0.1-0.2-0.1c-0.1-0.1-0.1-0.1-0.1-0.2c0-0.1,0-0.1,0-0.2V42c0-0.1,0-0.2,0-0.2s0.1-0.1,0.1-0.2 c0.1-0.1,0.1-0.1,0.2-0.1c0.1,0,0.1,0,0.2,0h4.8c0.2,0,0.3,0.1,0.4,0.2s0.2,0.2,0.2,0.4s-0.1,0.3-0.2,0.4s-0.2,0.2-0.4,0.2H2.5 V45h3c0.2,0,0.3,0.1,0.4,0.2c0.1,0.1,0.2,0.2,0.2,0.4S6.1,45.8,6,45.9s-0.2,0.2-0.4,0.2h-3v2.5L6.8,48.7L6.8,48.7z"></path> </g> <g> <path class="st2" d="M37.9,47.9c0.1,0,0.2,0,0.2,0c0.1,0,0.1,0.1,0.2,0.1c0,0,0.1,0.1,0.1,0.2s0,0.1,0,0.2c0,0.1-0.1,0.3-0.2,0.4 c-0.8,0.6-1.6,0.9-2.6,0.9c-1.1,0-2.1-0.4-2.9-1.2c-0.8-0.8-1.2-1.8-1.2-2.9c0-1.1,0.4-2.1,1.2-2.9c0.8-0.8,1.8-1.2,2.9-1.2 c1,0,1.8,0.3,2.6,1c0.1,0.1,0.2,0.2,0.2,0.4c0,0.1,0,0.2,0,0.2c0,0.1-0.1,0.1-0.1,0.2c-0.1,0.1-0.1,0.1-0.2,0.1 c-0.1,0-0.1,0-0.2,0c-0.1,0-0.3-0.1-0.4-0.2c-0.3-0.2-0.5-0.4-0.9-0.5c-0.3-0.1-0.6-0.2-1-0.2c-0.8,0-1.6,0.3-2.1,0.9 c-0.6,0.6-0.9,1.3-0.9,2.1c0,0.8,0.3,1.6,0.9,2.1c0.6,0.6,1.3,0.9,2.1,0.9c0.7,0,1.3-0.2,1.9-0.7C37.7,47.9,37.8,47.9,37.9,47.9z "></path> </g> <g> <path class="st2" d="M52.6,48.7c0.2,0,0.3,0.1,0.4,0.2c0.1,0.1,0.2,0.2,0.2,0.4c0,0.2-0.1,0.3-0.2,0.4c-0.1,0.1-0.2,0.2-0.4,0.2 h-4.8c-0.1,0-0.2,0-0.2,0c-0.1,0-0.1-0.1-0.2-0.1c-0.1-0.1-0.1-0.1-0.1-0.2c0-0.1,0-0.1,0-0.2V42c0-0.1,0-0.2,0-0.2 s0.1-0.1,0.1-0.2c0-0.1,0.1-0.1,0.2-0.1c0.1,0,0.1,0,0.2,0h4.8c0.2,0,0.3,0.1,0.4,0.2c0.1,0.1,0.2,0.2,0.2,0.4s-0.1,0.3-0.2,0.4 c-0.1,0.1-0.2,0.2-0.4,0.2h-4.2V45h3c0.2,0,0.3,0.1,0.4,0.2c0.1,0.1,0.2,0.2,0.2,0.4s-0.1,0.3-0.2,0.4s-0.2,0.2-0.4,0.2h-3v2.5 L52.6,48.7L52.6,48.7z"></path> </g> <g> <path class="st2" d="M17,49.6c-0.1,0.1-0.2,0.2-0.4,0.2s-0.3-0.1-0.4-0.2s-0.2-0.2-0.2-0.4c0-0.1,0-0.3,0.1-0.4l2.5-3.2l-2.5-3.2 c-0.1-0.1-0.1-0.2-0.1-0.3c0-0.2,0.1-0.3,0.2-0.4c0.1-0.1,0.2-0.2,0.4-0.2s0.3,0.1,0.4,0.2l2.4,3.1l2.4-3.1 c0.1-0.1,0.2-0.2,0.4-0.2s0.3,0.1,0.4,0.2s0.2,0.2,0.2,0.4c0,0.1,0,0.2-0.1,0.3l-2.5,3.2l2.5,3.2c0.1,0.1,0.1,0.2,0.1,0.4 c0,0.2-0.1,0.3-0.2,0.4c-0.1,0.1-0.2,0.2-0.4,0.2c-0.2,0-0.3-0.1-0.4-0.2l-2.4-3L17,49.6z"></path> </g> <g> <path class="st2" d="M61.9,42.1c0-0.2,0.1-0.3,0.2-0.4c0.1-0.1,0.2-0.2,0.4-0.2s0.3,0.1,0.4,0.2c0.1,0.1,0.2,0.2,0.2,0.4v6.6h3.8 c0.2,0,0.3,0.1,0.4,0.2c0.1,0.1,0.2,0.2,0.2,0.4s-0.1,0.3-0.2,0.4c-0.1,0.1-0.2,0.2-0.4,0.2h-4.4c-0.1,0-0.2,0-0.2,0 s-0.1-0.1-0.2-0.1c-0.1-0.1-0.1-0.1-0.1-0.2c0-0.1,0-0.1,0-0.2V42.1z"></path> </g> <g> <path class="st2" d="M76.1,42.1c0-0.2,0.1-0.3,0.2-0.4c0.1-0.1,0.2-0.2,0.4-0.2c0.2,0,0.3,0.1,0.4,0.2c0.1,0.1,0.2,0.2,0.2,0.4 v6.6H81c0.2,0,0.3,0.1,0.4,0.2c0.1,0.1,0.2,0.2,0.2,0.4s-0.1,0.3-0.2,0.4s-0.2,0.2-0.4,0.2h-4.4c-0.1,0-0.2,0-0.2,0 s-0.1-0.1-0.2-0.1c0-0.1-0.1-0.1-0.1-0.2c0-0.1,0-0.1,0-0.2V42.1z"></path> </g> <g> <path class="st2" d="M95.7,48.7c0.2,0,0.3,0.1,0.4,0.2c0.1,0.1,0.2,0.2,0.2,0.4c0,0.2-0.1,0.3-0.2,0.4c-0.1,0.1-0.2,0.2-0.4,0.2 h-4.8c-0.1,0-0.2,0-0.2,0c-0.1,0-0.1-0.1-0.2-0.1c-0.1-0.1-0.1-0.1-0.1-0.2c0-0.1,0-0.1,0-0.2V42c0-0.1,0-0.2,0-0.2 c0-0.1,0.1-0.1,0.1-0.2c0.1-0.1,0.1-0.1,0.2-0.1c0.1,0,0.1,0,0.2,0h4.8c0.2,0,0.3,0.1,0.4,0.2c0.1,0.1,0.2,0.2,0.2,0.4 s-0.1,0.3-0.2,0.4c-0.1,0.1-0.2,0.2-0.4,0.2h-4.2V45h3c0.2,0,0.3,0.1,0.4,0.2c0.1,0.1,0.2,0.2,0.2,0.4s-0.1,0.3-0.2,0.4 c-0.1,0.1-0.2,0.2-0.4,0.2h-3v2.5L95.7,48.7L95.7,48.7z"></path> </g> <g> <path class="st2" d="M105,49.2v-7.2c0-0.1,0-0.2,0-0.2c0-0.1,0.1-0.1,0.1-0.2c0.1-0.1,0.1-0.1,0.2-0.1c0.1,0,0.1,0,0.2,0 c0.2,0,0.3,0.1,0.4,0.2l4.6,5.9V42c0-0.2,0.1-0.3,0.2-0.4c0.1-0.1,0.2-0.2,0.4-0.2c0.2,0,0.3,0.1,0.4,0.2 c0.1,0.1,0.2,0.2,0.2,0.4v7.2c0,0.1,0,0.2,0,0.2c0,0.1-0.1,0.1-0.1,0.2c-0.1,0.1-0.1,0.1-0.2,0.1c-0.1,0-0.1,0-0.2,0 c-0.2,0-0.3-0.1-0.4-0.2l-4.6-5.9v5.5c0,0.2-0.1,0.3-0.2,0.4s-0.2,0.2-0.4,0.2c-0.2,0-0.3-0.1-0.4-0.2 C105,49.5,105,49.4,105,49.2z"></path> </g> <g> <path class="st2" d="M126.8,47.9c0.1,0,0.2,0,0.2,0c0.1,0,0.1,0.1,0.2,0.1c0.1,0,0.1,0.1,0.1,0.2c0,0.1,0,0.1,0,0.2 c0,0.1-0.1,0.3-0.2,0.4c-0.8,0.6-1.6,0.9-2.6,0.9c-1.1,0-2.1-0.4-2.9-1.2c-0.8-0.8-1.2-1.8-1.2-2.9c0-1.1,0.4-2.1,1.2-2.9 c0.8-0.8,1.8-1.2,2.9-1.2c1,0,1.8,0.3,2.6,1c0.1,0.1,0.2,0.2,0.2,0.4c0,0.1,0,0.2,0,0.2c0,0.1-0.1,0.1-0.1,0.2 c-0.1,0.1-0.1,0.1-0.2,0.1c-0.1,0-0.1,0-0.2,0c-0.1,0-0.3-0.1-0.4-0.2c-0.3-0.2-0.5-0.4-0.9-0.5c-0.3-0.1-0.6-0.2-1-0.2 c-0.8,0-1.6,0.3-2.2,0.9c-0.6,0.6-0.9,1.3-0.9,2.1c0,0.8,0.3,1.6,0.9,2.1c0.6,0.6,1.3,0.9,2.2,0.9c0.7,0,1.3-0.2,1.9-0.7 C126.6,47.9,126.7,47.9,126.8,47.9z"></path> </g> <g> <path class="st2" d="M141.4,48.7c0.2,0,0.3,0.1,0.4,0.2c0.1,0.1,0.2,0.2,0.2,0.4c0,0.2-0.1,0.3-0.2,0.4c-0.1,0.1-0.2,0.2-0.4,0.2 h-4.8c-0.1,0-0.2,0-0.2,0c-0.1,0-0.1-0.1-0.2-0.1c-0.1-0.1-0.1-0.1-0.1-0.2c0-0.1,0-0.1,0-0.2V42c0-0.1,0-0.2,0-0.2 c0-0.1,0.1-0.1,0.1-0.2c0.1-0.1,0.1-0.1,0.2-0.1c0.1,0,0.1,0,0.2,0h4.8c0.2,0,0.3,0.1,0.4,0.2s0.2,0.2,0.2,0.4s-0.1,0.3-0.2,0.4 s-0.2,0.2-0.4,0.2h-4.2V45h3c0.2,0,0.3,0.1,0.4,0.2c0.1,0.1,0.2,0.2,0.2,0.4s-0.1,0.3-0.2,0.4c-0.1,0.1-0.2,0.2-0.4,0.2h-3v2.5 L141.4,48.7L141.4,48.7z"></path> </g> </g> </g> </svg> 